<svg xmlns="http://www.w3.org/2000/svg" width="50" height="50.001" viewBox="0 0 50 50.001"><path d="M-9899-553h-50v-50h50v50Zm-25-29.055a1.545,1.545,0,0,0-1.543,1.543v20.732a1.545,1.545,0,0,0,1.543,1.543,1.546,1.546,0,0,0,1.545-1.543V-580.51A1.546,1.546,0,0,0-9924-582.053Zm0-4.671a1.53,1.53,0,0,1,1.092.451s0,.006,0,.008l5.848,5.773a1.534,1.534,0,0,0,1.086.447,1.545,1.545,0,0,0,1.1-.459,1.549,1.549,0,0,0-.015-2.185l-5.843-5.77a4.6,4.6,0,0,0-3.273-1.352,4.593,4.593,0,0,0-3.273,1.354l-5.771,5.775a1.552,1.552,0,0,0,0,2.185,1.544,1.544,0,0,0,1.094.452,1.531,1.531,0,0,0,1.091-.454l5.768-5.773A1.541,1.541,0,0,1-9924-586.724Zm-18.222-11.042a1.547,1.547,0,0,0-1.546,1.546,1.546,1.546,0,0,0,1.546,1.543h36.441a1.546,1.546,0,0,0,1.546-1.543,1.547,1.547,0,0,0-1.546-1.546Z" transform="translate(9949 602.999)" fill="#628989"/></svg>