<svg xmlns="http://www.w3.org/2000/svg" width="204.883" height="253" viewBox="0 0 204.883 253"><g transform="translate(3.054 3)"><path d="M269.383,129.384l-98.161,15.547a99.384,99.384,0,1,1,196.322,0Z" transform="translate(-169.995 -30)" fill="#3069bf"/><path d="M312.082,180l98.161,15.547a99.384,99.384,0,0,1-113.708,82.614Z" transform="translate(-212.694 -80.616)" fill="#a3bf30"/><path d="M270.008,180,254.46,278.161a99.384,99.384,0,0,1-82.614-82.614Z" transform="translate(-170.62 -80.616)" fill="#bf5b30"/><path d="M269.383,129.384l-98.161,15.547a99.384,99.384,0,1,1,196.322,0Z" transform="translate(-169.995 -30)" fill="#71a0a0" stroke="#fff" stroke-width="6"/><path d="M312.082,180l98.161,15.547a99.384,99.384,0,0,1-113.708,82.614Z" transform="translate(-212.694 -80.616)" fill="#c78567" stroke="#fff" stroke-width="6"/><path d="M270.008,180,254.46,278.161a99.384,99.384,0,0,1-82.614-82.614Z" transform="translate(-170.62 -80.616)" fill="#527474" stroke="#fff" stroke-width="6"/><text transform="translate(98.925 55)" fill="#fff" font-size="16" font-family="Raleway-Bold, Raleway" font-weight="700"><tspan x="-15.152" y="0">55%</tspan></text><text transform="translate(140.925 150)" fill="#fff" font-size="16" font-family="Raleway-Bold, Raleway" font-weight="700"><tspan x="-15.232" y="0">25%</tspan></text><text transform="translate(57.925 144)" fill="#fff" font-size="16" font-family="Raleway-Bold, Raleway" font-weight="700"><tspan x="-15.712" y="0">20%</tspan></text><text transform="translate(95.925 246)" fill="#01011d" font-size="15" font-family="Raleway-Bold, Raleway" font-weight="700"><tspan x="-45.938" y="0">VÝBUŠNOSŤ</tspan></text></g></svg>