<svg xmlns="http://www.w3.org/2000/svg" width="59.499" height="59.499" viewBox="0 0 59.499 59.499"><g transform="translate(0 0)"><path d="M57.557,2.627C55.937,1.007,53.374.1,50.143.008a31.183,31.183,0,0,0-10.2,1.712A56.222,56.222,0,0,0,25.177,9.235l6.44,6.441a1.743,1.743,0,1,1-2.465,2.465l-6.8-6.8c-1.579,1.242-3.112,2.564-4.585,3.961l6.361,6.36a1.743,1.743,0,1,1-2.465,2.465L15.3,17.764c-1.4,1.473-2.72,3.007-3.961,4.585l6.8,6.8a1.743,1.743,0,1,1-2.465,2.465l-6.441-6.44A56.217,56.217,0,0,0,1.72,39.939a31.163,31.163,0,0,0-1.712,10.2c.093,3.23,1,5.794,2.618,7.414A6.673,6.673,0,0,0,7.539,59.5a10.661,10.661,0,0,0,2.033-.208,25.142,25.142,0,0,0,8.344-3.741c5.4-3.429,12.228-9.261,20.3-17.334s13.906-14.9,17.334-20.3a25.138,25.138,0,0,0,3.741-8.344c.563-2.894-.021-5.231-1.735-6.945Z" transform="translate(0 0)" fill="#628989"/></g></svg>