<svg xmlns="http://www.w3.org/2000/svg" width="30" height="57.499" viewBox="0 0 30 57.499"><g transform="translate(-122.435)"><g transform="translate(122.435)"><path d="M147,7.48A3.743,3.743,0,0,0,146.81,0H128.06a3.742,3.742,0,0,0-.193,7.48c-1.171,10.587-5.432,11.284-5.432,21.933v22.46A5.631,5.631,0,0,0,128.06,57.5h18.75a5.631,5.631,0,0,0,5.625-5.625V29.414C152.434,18.747,148.176,18.094,147,7.48ZM136.21,23.18a12.714,12.714,0,0,0-8.6-2.023,24.592,24.592,0,0,1,1.19-2.819A33.178,33.178,0,0,0,131.638,7.5h11.594a33.172,33.172,0,0,0,2.838,10.838,24.7,24.7,0,0,1,1.567,3.961C146.262,22.981,141.748,26.872,136.21,23.18Z" transform="translate(-122.435)" fill="#628989"/></g></g></svg>