<svg xmlns="http://www.w3.org/2000/svg" width="362" height="192" viewBox="0 0 362 192"><g transform="translate(-128 -789)"><rect width="362" height="192" transform="translate(128 789)" fill="#628989"/><g transform="translate(357 783.51)"><path d="M58.232,74.358a4.764,4.764,0,0,0-7.59,0L39.415,89.309H69.459Z" transform="translate(-33.179)" fill="#527474"/><path d="M80.412,209.7a2.373,2.373,0,0,0-1.785-.809H2.373a2.373,2.373,0,0,0-2.352,2.684c2.132,15.994,13.747,29.718,29.466,33.8H51.514c15.72-4.085,27.334-17.807,29.466-33.8A2.373,2.373,0,0,0,80.412,209.7Z" transform="translate(0 -114.837)" fill="#527474"/><path d="M236.862,89.31,225.636,74.359h0a4.764,4.764,0,0,0-7.59,0l-3.028,4.033s7.9,10.565,8.1,10.918Z" transform="translate(-181 0)" fill="#527474"/><path d="M358.173,89.4,346.959,74.464h0a4.763,4.763,0,0,0-7.59,0l-2.682,3.572S344.92,89.045,345.12,89.4h13.053Z" transform="translate(-283.421 -0.089)" fill="#527474"/></g></g></svg>