<svg xmlns="http://www.w3.org/2000/svg" width="62.527" height="38.94" viewBox="0 0 62.527 38.94"><g transform="translate(0 -96.567)"><g transform="translate(0 96.567)"><g transform="translate(0 0)"><path d="M20.818,114.69l18.068,18.068a49.939,49.939,0,0,0-.453-9.381c-1.1-7.64-3.913-13.918-8.149-18.153S19.771,98.17,12.131,97.075a47.672,47.672,0,0,0-10.3-.39A1.906,1.906,0,0,0,.117,98.4a47.691,47.691,0,0,0,.39,10.3c1.1,7.64,3.913,13.918,8.149,18.153S19.169,133.9,26.809,135a50.949,50.949,0,0,0,7.154.507c.93,0,1.687-.027,2.226-.055L18.122,117.385a1.906,1.906,0,1,1,2.7-2.7Z" transform="translate(0 -96.567)" fill="#628989"/></g></g><g transform="translate(40.365 108.106)"><g transform="translate(0 0)"><path d="M352.607,192.859a1.906,1.906,0,0,0-1.716-1.716c-.509-.049-12.56-1.112-19.577,5.906q-.41.41-.783.842a45.061,45.061,0,0,1,1.842,7.9c.128.9.228,1.762.306,2.588l4.981-4.981a1.906,1.906,0,0,1,2.7,2.7l-7.435,7.435c0,1.943-.112,3.21-.137,3.463a5.7,5.7,0,0,1-.278,1.291c4.235-.392,10.08-1.727,14.2-5.843C353.718,205.419,352.655,193.368,352.607,192.859Z" transform="translate(-330.53 -191.058)" fill="#628989"/></g></g></g></svg>