<svg xmlns="http://www.w3.org/2000/svg" width="81.021" height="40.979" viewBox="0 0 81.021 40.979"><g transform="translate(-198.979 -7573.51)"><text transform="translate(255 7602)" font-size="15" font-family="Raleway-Bold, Raleway" font-weight="700"><tspan x="-24.15" y="0">250 ml</tspan></text><g transform="translate(139.778 7573.51)"><g transform="translate(59.2)"><path d="M87.027.26A.4.4,0,0,0,86.595,0H59.978a.7.7,0,0,0-.562.26A.915.915,0,0,0,59.2.824l2.981,36.6a3.964,3.964,0,0,0,3.846,3.556H80.416a3.9,3.9,0,0,0,3.846-3.556L87.243.824A.667.667,0,0,0,87.027.26ZM80.5,39.505H66.07a2.416,2.416,0,0,1-2.333-2.125h19.1A2.45,2.45,0,0,1,80.5,39.505Zm2.463-3.643H63.607L60.8,1.518H85.731Z" transform="translate(-59.2)" fill="#e2e2e2"/></g><g transform="translate(64.436 14.377)"><path d="M116.049,117.768a.6.6,0,0,0-.622-.122,11.162,11.162,0,0,1-7.7.041,9.075,9.075,0,0,0-3.07-.487,16.761,16.761,0,0,0-5.48,1.054.713.713,0,0,0-.428.73l1.321,17.519a.687.687,0,0,0,.661.649h13.758a.66.66,0,0,0,.661-.649l1.166-18.127A.694.694,0,0,0,116.049,117.768Zm-2.176,17.924H101.358l-1.166-16.3a14.739,14.739,0,0,1,4.508-.811,8.406,8.406,0,0,1,2.6.406,12.5,12.5,0,0,0,7.618.284Z" transform="translate(-98.749 -117.2)" fill="#e2e2e2"/></g></g></g></svg>