<svg xmlns="http://www.w3.org/2000/svg" width="82.043" height="40.979" viewBox="0 0 82.043 40.979"><g transform="translate(-441.957 -7615)"><text transform="translate(499 7640)" font-size="15" font-family="Raleway-Bold, Raleway" font-weight="700"><tspan x="-24.6" y="0">200 ml</tspan></text><g transform="translate(382.757 7615)"><g transform="translate(59.2)"><path d="M87.027.26A.4.4,0,0,0,86.595,0H59.978a.7.7,0,0,0-.562.26A.915.915,0,0,0,59.2.824l2.981,36.6a3.964,3.964,0,0,0,3.846,3.556H80.416a3.9,3.9,0,0,0,3.846-3.556L87.243.824A.667.667,0,0,0,87.027.26ZM80.5,39.505H66.07a2.416,2.416,0,0,1-2.333-2.125h19.1A2.45,2.45,0,0,1,80.5,39.505Zm2.463-3.643H63.607L60.8,1.518H85.731Z" transform="translate(-59.2)" fill="#e2e2e2"/></g><g transform="translate(64.436 17.651)"><path d="M116.049,117.675a.7.7,0,0,0-.622-.1,13.229,13.229,0,0,1-7.7.034,10.71,10.71,0,0,0-3.07-.407,19.619,19.619,0,0,0-5.48.881.591.591,0,0,0-.428.61l1.321,14.645a.643.643,0,0,0,.661.542h13.758a.616.616,0,0,0,.661-.542l1.166-15.153A.547.547,0,0,0,116.049,117.675Zm-2.176,14.984H101.358l-1.166-13.628a17.328,17.328,0,0,1,4.508-.678,9.926,9.926,0,0,1,2.6.339,14.831,14.831,0,0,0,7.618.237Z" transform="translate(-98.749 -117.2)" fill="#e2e2e2"/></g></g></g></svg>