<svg xmlns="http://www.w3.org/2000/svg" width="58.206" height="59.499" viewBox="0 0 58.206 59.499"><g transform="translate(-5.565)"><g transform="translate(5.565)"><path d="M61.83,24.576H59.854a7.688,7.688,0,0,0-2.808-5.354,7.739,7.739,0,0,0-6-10.379,7.737,7.737,0,0,0-10.384-6,7.739,7.739,0,0,0-11.992,0,7.739,7.739,0,0,0-10.385,6,7.738,7.738,0,0,0-6,10.379,7.689,7.689,0,0,0-2.808,5.354H7.505a1.94,1.94,0,0,0-1.94,1.94,29.249,29.249,0,0,0,15.521,25.71v1.452A5.827,5.827,0,0,0,26.907,59.5H42.428a5.827,5.827,0,0,0,5.821-5.821V52.226a29.249,29.249,0,0,0,15.521-25.71A1.94,1.94,0,0,0,61.83,24.576Zm-48.45,0a3.94,3.94,0,0,1,2.254-2.893,1.94,1.94,0,0,0,.78-2.913,3.866,3.866,0,0,1,3.539-6.129,1.96,1.96,0,0,0,1.574-.558,1.939,1.939,0,0,0,.558-1.574,3.867,3.867,0,0,1,6.13-3.539,1.94,1.94,0,0,0,2.912-.781,3.868,3.868,0,0,1,7.079,0,1.94,1.94,0,0,0,2.912.781,3.867,3.867,0,0,1,6.13,3.539,1.94,1.94,0,0,0,2.132,2.132,3.867,3.867,0,0,1,3.539,6.13,1.94,1.94,0,0,0,.781,2.912,3.94,3.94,0,0,1,2.254,2.893Z" transform="translate(-5.565)" fill="#628989"/></g></g></svg>