<svg xmlns="http://www.w3.org/2000/svg" width="56.562" height="56.813" viewBox="0 0 56.562 56.813"><g transform="translate(-1.131)"><g transform="translate(4.599 32.63)"><g transform="translate(0 4.113)"><path d="M42.786,332.335l-.071-.144a13.675,13.675,0,0,1-3.82.567h-.081a13.516,13.516,0,0,1-6.428-1.615,10.5,10.5,0,0,0,10.493,9.417h.063a10.71,10.71,0,0,0,2.933-.425A48.276,48.276,0,0,0,42.786,332.335Z" transform="translate(-32.385 -331.144)" fill="#628989"/><path d="M380.647,339.667h-.075a12.8,12.8,0,0,1-4.122-.681c-.131.355-.258.708-.376,1.05a53.527,53.527,0,0,0-1.524,5.284,8.548,8.548,0,0,0,3.2.62h.051a8.505,8.505,0,0,0,5.992-2.487,8.287,8.287,0,0,0,2.422-5.088A12.768,12.768,0,0,1,380.647,339.667Z" transform="translate(-336.584 -337.564)" fill="#628989"/></g><path d="M176.479,298.128a12.334,12.334,0,0,1-2.275-1.974q-.538.054-1.083.057h-.069a11.452,11.452,0,0,1-5.51-1.4l-2.01,6.736-3.778-7.052a12.341,12.341,0,0,1-1.35-.411,11.461,11.461,0,0,1-3.962.862A13.074,13.074,0,0,1,153,297.9c2.328,4.691,5,11.7,4.795,18.888a1.431,1.431,0,0,0,1.43,1.471h4.662l-.037-7.252a1.664,1.664,0,1,1,3.328-.031l.037,7.283h4.474a1.431,1.431,0,0,0,1.422-1.489,48.748,48.748,0,0,1,2.85-17.2Q176.217,298.823,176.479,298.128Z" transform="translate(-139.613 -294.08)" fill="#628989"/></g><path d="M48.586,35.517a9.238,9.238,0,0,1-7.983-4.5,8.18,8.18,0,0,1-2.517.41h-.05a8,8,0,0,1-5.236-1.91,9.052,9.052,0,0,1-7.493-.584,8.086,8.086,0,0,1-4.267,1.233,8.387,8.387,0,0,1-1.3-.094,10,10,0,0,1-8.657,4.952h-.062a9.675,9.675,0,0,1-9.9-9.345,9.4,9.4,0,0,1,6.251-8.8,6.929,6.929,0,0,1,2.086-6.33,7.649,7.649,0,0,1,5.257-2.092,8.006,8.006,0,0,1,1.331.1,11.2,11.2,0,0,1,3.417-5.493A12.28,12.28,0,0,1,27.582,0h.074a12.364,12.364,0,0,1,7.7,2.666A11.368,11.368,0,0,1,38.987,7.7a11.19,11.19,0,0,1,2.029-.2h.067A10.408,10.408,0,0,1,51.731,17.555,9.583,9.583,0,0,1,51.67,18.7a9.165,9.165,0,0,1,3.749,2.424,8.359,8.359,0,0,1-.39,11.85,9.291,9.291,0,0,1-6.387,2.539h-.056Z" fill="#628989"/></g></svg>