<svg xmlns="http://www.w3.org/2000/svg" width="58.545" height="55.549" viewBox="0 0 58.545 55.549"><g transform="translate(0 -13.12)"><path d="M27.182,189.852l.117-11.829a1.087,1.087,0,0,0-.317-.778L0,150.188v11.166a3.042,3.042,0,0,0,.87,2.13l4.5,4.588a1.021,1.021,0,0,0,.81.3q.36-.028.722-.028a9.4,9.4,0,0,1,9.39,9.392q0,.285-.017.57a1.856,1.856,0,0,0,.519,1.418l10.06,10.261A.192.192,0,0,0,27.182,189.852Z" transform="translate(0 -121.42)" fill="#628989"/><path d="M299.623,149.846l-9.864,9.864a1.943,1.943,0,0,1-2.683.061,5.017,5.017,0,0,0-8.4,3.672,4.949,4.949,0,0,0,1.336,3.385,1.943,1.943,0,0,1-.043,2.694l-7.393,7.442a1.087,1.087,0,0,0-.316.755l-.115,11.871a.193.193,0,0,0,.332.135l26.294-27.566a3.042,3.042,0,0,0,.85-2.109v-10.2Z" transform="translate(-241.078 -121.117)" fill="#628989"/><path d="M228.234,92.372a3.654,3.654,0,1,0-3.678-3.654A3.67,3.67,0,0,0,228.234,92.372Z" transform="translate(-198.92 -63.73)" fill="#628989"/><path d="M40.685,46.852a8.889,8.889,0,0,1,12.147-12.18L63.526,23.979a33.957,33.957,0,0,0-6.165-4.817A42.3,42.3,0,0,0,34.979,13.12c-16.1,0-25.434,7.783-28.516,10.886L16.488,34.059,34.206,51.825a1.087,1.087,0,0,0,1.541,0ZM51.944,23.74A2.137,2.137,0,1,1,49.8,25.877,2.141,2.141,0,0,1,51.944,23.74Zm-16.9-6.292a7.54,7.54,0,1,1-7.563,7.54A7.56,7.56,0,0,1,35.039,17.448ZM31.7,41.971a2.137,2.137,0,1,1,2.145-2.137A2.141,2.141,0,0,1,31.7,41.971Z" transform="translate(-5.725)" fill="#628989"/></g></svg>