<svg xmlns="http://www.w3.org/2000/svg" width="51.786" height="51.788" viewBox="0 0 51.786 51.788"><g transform="translate(-0.011 0)"><path d="M122.634,4.132a9.9,9.9,0,0,1,3.72,1.59A36.317,36.317,0,0,1,139.271,4.6C134.86-.379,128.735-.985,122.458,1.2A1.517,1.517,0,0,0,122.634,4.132Z" transform="translate(-109.13 0)" fill="#628989"/><path d="M7.062,97.97A9.42,9.42,0,0,1,17.27,96.182,76.194,76.194,0,0,0,31.68,100.04c-.376-.591-.379-.594-.4-.639-1.4-2.442-4.485-8.778-2.759-14.866,1.017-3.588,3.5-6.474,7.387-8.579l.656-.359a29.878,29.878,0,0,0-15.1-1.252,20.767,20.767,0,0,0-9.063,3.316C1.663,84.744-1.4,94.349.574,102.411v0c2.318,9.441,12.01,15.352,12.421,15.6a1.518,1.518,0,0,0,.793.216,6.771,6.771,0,0,0,4.946-2.272c1.637-1.928,2.1-4.8,1.385-8.531a1.52,1.52,0,0,0-2.1-1.1,14.287,14.287,0,0,1-5.611.981,10.116,10.116,0,0,1-8.628-5.281A16.363,16.363,0,0,1,7.062,97.97Z" transform="translate(0 -66.44)" fill="#628989"/><path d="M327.556,126.234c-1.334-8.693-5.14-15.822-11.842-19.752l-2.579,1.411c-3.143,1.7-5.136,3.971-5.922,6.744-1.4,4.954,1.234,10.368,2.454,12.5l1.7,2.677c5.071.462,10.333.183,14.778-1.72a2.214,2.214,0,0,0,1.19-.8A1.516,1.516,0,0,0,327.556,126.234Zm-11.294-7.954a1.517,1.517,0,1,1,1.517-1.517A1.516,1.516,0,0,1,316.262,118.28Z" transform="translate(-275.778 -95.714)" fill="#628989"/></g></svg>