<svg xmlns="http://www.w3.org/2000/svg" width="50.218" height="50.218" viewBox="0 0 50.218 50.218"><g transform="translate(0)"><path d="M7.151,333.982a5.139,5.139,0,1,0-3.113,9.748,5.139,5.139,0,1,0,9.748-3.113l4.067-4.067-6.635-6.635Z" transform="translate(0 -297.55)" fill="#628989"/><path d="M151.824,4.2a14.368,14.368,0,0,0-20.3,0A55.463,55.463,0,0,0,121.164,18.95a44.041,44.041,0,0,1-3.023,5.207,4.317,4.317,0,0,0,.436,5.6l7.686,7.686a4.3,4.3,0,0,0,3.048,1.266,4.357,4.357,0,0,0,2.554-.831,44.041,44.041,0,0,1,5.207-3.023,55.468,55.468,0,0,0,14.753-10.363A14.368,14.368,0,0,0,151.824,4.2Z" transform="translate(-105.802 0)" fill="#628989"/></g></svg>