<svg xmlns="http://www.w3.org/2000/svg" width="53.428" height="50.008" viewBox="0 0 53.428 50.008"><g transform="translate(0 -16.391)"><g transform="translate(9.244 25.645)"><path d="M122.13,110.061a10.034,10.034,0,0,0-6.166-4.661,10.19,10.19,0,0,0-2.575-.333,10.022,10.022,0,0,0-5.082,1.387c-5.476,3.209-11.625,9.894-15.666,17.029a33.092,33.092,0,0,0-3.794,9.423,11.708,11.708,0,0,0-.253,2.721,21.391,21.391,0,0,1,6.2-5.375c5.8-3.4,12.83-4.422,18.943-4.975l.106-.009.049,0,.1-.006a9.981,9.981,0,0,0,4.53-1.374A10.114,10.114,0,0,0,122.13,110.061Zm-4.73,5.989a4.506,4.506,0,0,1-4.347,3.366,4.527,4.527,0,0,1-1.144-.148,4.5,4.5,0,1,1,5.491-3.219Z" transform="translate(-88.587 -105.067)" fill="#628989"/></g><g transform="translate(32.336 34.124)"><path d="M312.425,187a1.367,1.367,0,1,0,.143,1.037A1.368,1.368,0,0,0,312.425,187Z" transform="translate(-309.878 -186.325)" fill="#628989"/></g><g transform="translate(0 16.391)"><g transform="translate(0 0)"><path d="M50.764,25.964a19.348,19.348,0,0,0-26.475-6.908C17.406,23.089,10.112,30.925,5.254,39.5-.058,48.883-1.418,57.138,1.521,62.153a8.525,8.525,0,0,0,5.237,3.964A8.628,8.628,0,0,0,8.94,66.4a8.533,8.533,0,0,0,4.325-1.182,13.2,13.2,0,0,0,2.847-2.728c.026-.033.051-.068.075-.1,3.516-5.248,11.58-6.647,19.011-7.321a19.351,19.351,0,0,0,15.566-29.1Zm-10,21.2a13.084,13.084,0,0,1-5.937,1.8l-.157.011c-5.766.521-12.373,1.471-17.639,4.557a18.02,18.02,0,0,0-5.757,5.208q-.04.058-.086.112a12.621,12.621,0,0,1-.874.943,1.568,1.568,0,0,1-.537.334,2.467,2.467,0,0,1-2.984-1.069c-1.035-1.766-.672-4.636-.363-6.189a36.19,36.19,0,0,1,4.141-10.356c4.293-7.581,10.891-14.72,16.808-18.188A13.236,13.236,0,0,1,40.765,47.166Z" transform="translate(0 -16.391)" fill="#628989"/></g></g></g></svg>