<svg xmlns="http://www.w3.org/2000/svg" width="41" height="49.792" viewBox="0 0 41 49.792"><g transform="translate(-45.202 0)"><g transform="translate(45.202 14.853)"><g transform="translate(0)"><path d="M77.433,152.865h0a10.048,10.048,0,0,0-7.768,1.972,6.54,6.54,0,0,1-7.925,0,10.071,10.071,0,0,0-6.143-2.1,10.189,10.189,0,0,0-1.624.131,10.676,10.676,0,0,0-8.642,12.244c1.621,10.622,4.693,17.85,8.884,20.9a8.439,8.439,0,0,0,6.622,1.524,6.154,6.154,0,0,0,3.695-1.905,1.594,1.594,0,0,1,2.343,0,6.154,6.154,0,0,0,3.695,1.905,8.437,8.437,0,0,0,6.622-1.524c4.191-3.054,7.263-10.283,8.884-20.9A10.676,10.676,0,0,0,77.433,152.865Z" transform="translate(-45.202 -152.734)" fill="#628989"/></g></g><g transform="translate(57.118 0)"><g transform="translate(0 0)"><path d="M188.085,4.8a1.594,1.594,0,0,0-2.062-.912A20.1,20.1,0,0,0,178.7,9.226a10.833,10.833,0,0,0-.5-1.734c-1.856-4.836-6.956-7.244-7.172-7.344a1.595,1.595,0,0,0-2.137.82c-.094.219-2.272,5.421-.416,10.257a10.7,10.7,0,0,0,.578,1.248,13.366,13.366,0,0,1,5.234,2.449,3.344,3.344,0,0,0,4.053,0q.421-.322.859-.607a13.873,13.873,0,0,1,3.881-4.923,16.983,16.983,0,0,1,4.092-2.527A1.6,1.6,0,0,0,188.085,4.8Z" transform="translate(-167.729 0)" fill="#628989"/></g></g></g></svg>