<svg xmlns="http://www.w3.org/2000/svg" width="48.796" height="48.796" viewBox="0 0 48.796 48.796"><g transform="translate(0 0)"><path d="M41.65,7.146a24.4,24.4,0,0,0-34.5,34.5,24.4,24.4,0,0,0,34.5-34.5ZM24.4,44.007A19.631,19.631,0,0,1,4.789,24.4c0-.018,0-.035,0-.053s0-.009,0-.013,0-.015,0-.022A19.63,19.63,0,0,1,24.131,4.792c.022,0,.044,0,.067,0l.04,0,.159,0a19.609,19.609,0,1,1,0,39.218Z" transform="translate(0 0)" fill="#628989"/></g><g transform="translate(7.733 7.722)"><path d="M112.7,98.882a1.444,1.444,0,0,1,0-2.887h1.74A16.75,16.75,0,0,0,99.051,81.029v1.515a1.444,1.444,0,0,1-2.887,0v-1.48a16.75,16.75,0,0,0-15.01,15.131h1.558a1.444,1.444,0,1,1,0,2.887h-1.57a16.749,16.749,0,0,0,15.221,15.281v-1.83a1.444,1.444,0,1,1,2.887,0v1.83a16.748,16.748,0,0,0,15.236-15.481Zm-9.051-4.98-4.823,4.823a1.444,1.444,0,0,1-2.042,0l-8.4-8.4a1.444,1.444,0,0,1,2.042-2.042l7.375,7.375,3.8-3.8a1.444,1.444,0,1,1,2.041,2.042Z" transform="translate(-81.142 -81.029)" fill="#628989"/></g></svg>