<svg xmlns="http://www.w3.org/2000/svg" width="63.526" height="35.879" viewBox="0 0 63.526 35.879"><g transform="translate(0 -108.812)"><g transform="translate(0 108.812)"><path d="M483.933,206.857a1.26,1.26,0,0,0-1.093,1.376v8.216a1.122,1.122,0,1,0,2.185,0v-8.217A1.259,1.259,0,0,0,483.933,206.857Z" transform="translate(-421.499 -194.401)" fill="#628989"/><path d="M1.095,206.857A1.261,1.261,0,0,0,0,208.233c0,2.109,0,6.107,0,8.214a1.263,1.263,0,0,0,1.093,1.378,1.258,1.258,0,0,0,1.092-1.375c0-2.105,0-6.108,0-8.217A1.26,1.26,0,0,0,1.095,206.857Z" transform="translate(0 -194.401)" fill="#628989"/><path d="M89.5,108.812a3.91,3.91,0,0,0-3.648,4.126c0,6.905,0,20.725,0,27.628a3.675,3.675,0,1,0,7.294,0V130.079h26.536v10.488a3.675,3.675,0,1,0,7.294,0V112.938a3.675,3.675,0,1,0-7.294,0v10.486H93.148V112.936A3.907,3.907,0,0,0,89.5,108.812Z" transform="translate(-74.945 -108.812)" fill="#628989"/><path d="M426.256,152.188H425.9a2.748,2.748,0,0,0-2.749,2.748V174.3a2.751,2.751,0,0,0,2.75,2.75h.357a2.748,2.748,0,0,0,2.75-2.748c0-4.781,0-14.579,0-19.362A2.749,2.749,0,0,0,426.256,152.188Z" transform="translate(-369.392 -146.677)" fill="#628989"/><path d="M30.763,152.188H30.4a2.747,2.747,0,0,0-2.749,2.748V174.3a2.749,2.749,0,0,0,2.749,2.75h.357A2.747,2.747,0,0,0,33.51,174.3V154.938A2.747,2.747,0,0,0,30.763,152.188Z" transform="translate(-24.142 -146.677)" fill="#628989"/></g></g></svg>