<svg xmlns="http://www.w3.org/2000/svg" width="52.5" height="52.5" viewBox="0 0 52.5 52.5"><path d="M43.984,2.389A4.537,4.537,0,0,0,39.95,0h-13.7a4.619,4.619,0,0,0-4.614,4.614v6.152a4.619,4.619,0,0,0,4.614,4.614h4.614V9.232H29.327a1.538,1.538,0,1,1,0-3.076h3.179a1.537,1.537,0,0,1,1.538,1.538v7.69h1.538a1.539,1.539,0,0,1,1.538,1.538V29.153a28.7,28.7,0,0,1,5.3,1.979,1.538,1.538,0,0,1-1.376,2.752,26.312,26.312,0,0,0-23.336,0,1.538,1.538,0,0,1-1.376-2.752,28.8,28.8,0,0,1,7.221-2.439,13.876,13.876,0,1,0-9.61,23.81c14.181,0,25.9-3.418,37.707-9.392a1.538,1.538,0,0,0,.847-1.374V35.062A66.743,66.743,0,0,0,43.984,2.389Z" transform="translate(0 -0.004)" fill="#628989"/></svg>