<svg xmlns="http://www.w3.org/2000/svg" width="37.881" height="49.73" viewBox="0 0 37.881 49.73"><g transform="translate(-61)"><path d="M91.846,18.972c2.434-2.487,5.8-6.856,4.809-11.246C95.4,1.053,86.7.049,79.951,0H79.93c-6.737.049-15.45,1.038-16.7,7.727-.992,4.389,2.375,8.759,4.809,11.246a18.944,18.944,0,0,0,1.432,30.514,1.454,1.454,0,0,0,.807.244H89.608a1.454,1.454,0,0,0,.807-.244,18.944,18.944,0,0,0,1.432-30.514ZM79.94,40.989A7.285,7.285,0,1,1,87.225,33.7,7.294,7.294,0,0,1,79.94,40.989Zm6.621-25.031a19.021,19.021,0,0,0-6.621-1.194,18.781,18.781,0,0,0-6.623,1.191c-1.979-1.866-4.269-4.195-4.269-6.346,0-3.57,7.308-3.78,10.892-3.781s10.892.21,10.892,3.781C90.832,11.757,88.534,14.1,86.561,15.958Z" transform="translate(0)" fill="#628989"/></g></svg>