<svg xmlns="http://www.w3.org/2000/svg" width="70.5" height="52.5" viewBox="0 0 70.5 52.5"><g transform="translate(-127.5 -40)"><rect width="70" height="52" transform="translate(128 40)" fill="#628989"/><path d="M41.269,37.143a.956.956,0,0,0-.185-.026H37.593l0,.026H35.577l-.062-.026H33.976c-.217,0-.4-.719-.42-.935-.194-1.952-.755-7.7-.821-11.857-1.008-4.875-1.33-5.361-1.33-5.361a21.625,21.625,0,0,1-7.333,1.41c-3.908,0-5.157,1.208-7.292,1.41s-3.142,1.651-4.835,2.417a18.794,18.794,0,0,1-7.281,1.652.92.92,0,0,0-.471.134A13.891,13.891,0,0,1,0,27.33V20.038L.538,19.6a26.6,26.6,0,0,0,5.737-3.2c3.894-3.6,5.175-4.624,10.4-2.779,0,0,3.433,1.528,5.483-.9A17.061,17.061,0,0,1,33.331,6.687c2.357-.718,2.105-2.463,2.157-3.232s1.074-5.071,4.763-2.8c0,0,1.738-1.087,3.687,1.12a11.181,11.181,0,0,1,1.879,2.07h0s1.279,2.423-.384,3.488v.1a5.1,5.1,0,0,1-1.177,1.21l-.486.11V9.3a34.185,34.185,0,0,0,3.932.49c1.177,0,2.552-.576,5.494.417a56.561,56.561,0,0,0,6.318.774.61.61,0,0,0,.571-.358l.839-1.788h.59V8.509A1.1,1.1,0,0,1,60.4,7.573V6.536a1.179,1.179,0,0,1,1.109-1.027H63.5c.517,0,.787.51.787,1.027v.973a.692.692,0,0,1-.787.772h-.3l-.024.276.555.008c.169-.017.127.094.165.259l.3,1.119-.173,2.484c-.019.182.03.34-.139.413l-.436.21-.032.777h.063c.524,0,.8.433.8.957v.79c0,.524-.276,1.026-.8,1.026H61.495a1.147,1.147,0,0,1-1.09-1.026V14.72a1.077,1.077,0,0,1,1.109-.949v-.5h-.538s-7.915.375-11.885.451a2.854,2.854,0,0,1-.612-.115c-1.441-.3-7.644-1.567-10.015-1.87-.029,1.959-.221,6.894-1.418,6.595-1.491-.373-.448-3.684-.448-3.684a2.4,2.4,0,0,1-.607-1.373,3.153,3.153,0,0,1-.926.491,13.827,13.827,0,0,1-.124,3.24,2.689,2.689,0,0,0-.022.985c.186,1.293.623,4.254.83,6.129.141,1.273-.384,7.378-.227,10.343a.712.712,0,0,0,.6.637c2.193.281,4.171.627,5.3.827a.859.859,0,0,1,.681.813v.4ZM38.051,1.635a.5.5,0,0,0,0,.8l1.043-.614a1.089,1.089,0,0,0-.668-.337A.543.543,0,0,0,38.051,1.635Z" transform="translate(128 54.857)" fill="#5a8181" stroke="rgba(0,0,0,0)" stroke-miterlimit="10" stroke-width="1"/></g></svg>