<svg xmlns="http://www.w3.org/2000/svg" width="90.8" height="70.861" viewBox="0 0 90.8 70.861"><defs><style>.a{fill:#e2e2e2;}.b{fill:#c78567;}.c{fill:#fff;font-size:15px;font-family:Raleway-Bold, Raleway;font-weight:700;}</style></defs><g transform="translate(-77.2 -3912.829)"><g transform="matrix(0.819, -0.473, 0.5, 0.866, 51.511, 3898.235)"><g transform="translate(0 50.476)"><path class="a" d="M49.824,75.641a8.369,8.369,0,0,0,3.664-5.809,9.865,9.865,0,0,0-4.851-19.117,2.186,2.186,0,0,0-1.71,2.134v3.629H43.3a2.186,2.186,0,0,0-2.134,1.71,9.862,9.862,0,0,0,7.795,11.848,4,4,0,0,1-2.982,2.551c-6.869-10.483-24.466-10.421-31.294,0A4,4,0,0,1,11.7,70.036a9.862,9.862,0,0,0,7.795-11.848,2.186,2.186,0,0,0-2.134-1.71H13.731v-3.63a2.186,2.186,0,0,0-1.71-2.134A9.865,9.865,0,0,0,7.17,69.832a8.369,8.369,0,0,0,3.664,5.809,18.264,18.264,0,0,0-7.815,4.877,2.186,2.186,0,0,0,3.2,2.976,13.954,13.954,0,0,1,6.188-3.763q-.005.189-.005.378a13.487,13.487,0,0,0,.2,2.329,18.673,18.673,0,0,0-8.793,7.038,2.186,2.186,0,1,0,3.667,2.381,14.252,14.252,0,0,1,6.57-5.285A14.573,14.573,0,0,0,15,88.095a18.554,18.554,0,0,0-7.561,7.944,2.186,2.186,0,1,0,3.939,1.9,14.689,14.689,0,0,1,6.756-6.559,20.2,20.2,0,0,0,24.394,0,14.689,14.689,0,0,1,6.756,6.559,2.186,2.186,0,0,0,3.939-1.9,18.552,18.552,0,0,0-7.561-7.944,14.6,14.6,0,0,0,.947-1.523,14.25,14.25,0,0,1,6.57,5.285,2.186,2.186,0,0,0,3.667-2.381,18.671,18.671,0,0,0-8.793-7.038,13.489,13.489,0,0,0,.2-2.329q0-.19-.005-.378a13.951,13.951,0,0,1,6.188,3.763,2.186,2.186,0,1,0,3.2-2.976A18.266,18.266,0,0,0,49.824,75.641Z" transform="translate(0 -50.476)"/></g></g><circle class="b" cx="26" cy="26" r="26" transform="translate(116 3927)"/><text class="c" transform="translate(142 3958)"><tspan x="-10.77" y="0">CU</tspan></text></g></svg>