<svg xmlns="http://www.w3.org/2000/svg" width="81.047" height="62.645" viewBox="0 0 81.047 62.645"><defs><style>.a{fill:#e2e2e2;}.b{fill:#c78567;}.c{fill:#fff;font-size:15px;font-family:Raleway-Bold, Raleway;font-weight:700;}</style></defs><g transform="translate(-86.953 -3916.355)"><g transform="translate(85.821 3916.355)"><g transform="translate(4.295 29.773)"><g transform="translate(0 3.752)"><path class="a" d="M41.875,332.231l-.065-.131a12.479,12.479,0,0,1-3.486.518H38.25a12.332,12.332,0,0,1-5.865-1.474,9.584,9.584,0,0,0,9.574,8.593h.058a9.771,9.771,0,0,0,2.676-.388A44.051,44.051,0,0,0,41.875,332.231Z" transform="translate(-32.385 -331.144)"/><path class="a" d="M380.113,339.553h-.069a11.684,11.684,0,0,1-3.761-.622c-.119.324-.235.646-.343.958a48.826,48.826,0,0,0-1.39,4.821,7.8,7.8,0,0,0,2.922.566h.047a7.76,7.76,0,0,0,5.467-2.269,7.562,7.562,0,0,0,2.21-4.642A11.651,11.651,0,0,1,380.113,339.553Z" transform="translate(-339.908 -337.634)"/></g><path class="a" d="M174.423,297.773a11.255,11.255,0,0,1-2.076-1.8q-.491.049-.988.052H171.3a10.449,10.449,0,0,1-5.028-1.28l-1.834,6.146-3.447-6.435a11.258,11.258,0,0,1-1.232-.375,10.456,10.456,0,0,1-3.615.787,11.929,11.929,0,0,1-3.144,2.7c2.124,4.28,4.562,10.677,4.375,17.234a1.306,1.306,0,0,0,1.3,1.343h4.253l-.033-6.617a1.519,1.519,0,1,1,3.037-.028l.034,6.645h4.082a1.306,1.306,0,0,0,1.3-1.359,44.481,44.481,0,0,1,2.6-15.692Q174.184,298.408,174.423,297.773Z" transform="translate(-140.785 -294.08)"/></g><path class="a" d="M44.431,32.407a8.429,8.429,0,0,1-7.284-4.1,7.464,7.464,0,0,1-2.3.374h-.045a7.3,7.3,0,0,1-4.777-1.743,8.26,8.26,0,0,1-6.837-.533A7.378,7.378,0,0,1,19.3,27.53a7.653,7.653,0,0,1-1.182-.086,9.123,9.123,0,0,1-7.9,4.518h-.057a8.828,8.828,0,0,1-9.029-8.527,8.581,8.581,0,0,1,5.7-8.034,6.322,6.322,0,0,1,1.9-5.775,6.979,6.979,0,0,1,4.8-1.908,7.305,7.305,0,0,1,1.215.095A10.222,10.222,0,0,1,17.867,2.8a11.2,11.2,0,0,1,7.4-2.8h.068a11.281,11.281,0,0,1,7.03,2.433,10.373,10.373,0,0,1,3.309,4.6,10.21,10.21,0,0,1,1.851-.179h.061A9.5,9.5,0,0,1,47.3,16.018a8.745,8.745,0,0,1-.056,1.048,8.362,8.362,0,0,1,3.421,2.211A7.627,7.627,0,0,1,50.31,30.09a8.478,8.478,0,0,1-5.828,2.317h-.051Z" transform="translate(0 0)"/></g><circle class="b" cx="26" cy="26" r="26" transform="translate(116 3927)"/><text class="c" transform="translate(142 3958)"><tspan x="-10.11" y="0">CA</tspan></text></g></svg>