<svg xmlns="http://www.w3.org/2000/svg" width="61.826" height="69.025" viewBox="0 0 61.826 69.025"><defs><style>.a{fill:#e2e2e2;}.b{fill:#c78567;}.c{fill:#fff;font-size:15px;font-family:Raleway-Bold, Raleway;font-weight:700;}</style></defs><g transform="translate(-106.174 -3909.975)"><g transform="translate(-16.261 3909.975)"><g transform="translate(122.435)"><path class="a" d="M148.5,7.936a3.97,3.97,0,0,0-.2-7.936H128.4a3.97,3.97,0,0,0-.2,7.936c-1.242,11.232-5.762,11.971-5.762,23.269V55.033A5.974,5.974,0,0,0,128.4,61h19.891a5.974,5.974,0,0,0,5.967-5.967V31.2C154.261,19.888,149.743,19.2,148.5,7.936ZM137.049,24.591a13.488,13.488,0,0,0-9.125-2.146,26.091,26.091,0,0,1,1.263-2.99,35.2,35.2,0,0,0,3.011-11.5h12.3a35.192,35.192,0,0,0,3.011,11.5,26.2,26.2,0,0,1,1.662,4.2C147.713,24.38,142.924,28.508,137.049,24.591Z" transform="translate(-122.435)"/></g></g><circle class="b" cx="26" cy="26" r="26" transform="translate(116 3927)"/><text class="c" transform="translate(142 3958)"><tspan x="-4.673" y="0">P</tspan></text></g></svg>