<svg xmlns="http://www.w3.org/2000/svg" width="76" height="66.025" viewBox="0 0 76 66.025"><defs><style>.a{fill:#e2e2e2;}.b{fill:#c78567;}.c{fill:#fff;font-size:15px;font-family:Raleway-Bold, Raleway;font-weight:700;}</style></defs><g transform="translate(-92 -3912.975)"><g transform="translate(91.004 3912.975)"><path class="a" d="M192.2,16.674a6.8,6.8,0,0,0,2.7-5.795c0-6.4-7.84-10.518-8.174-10.69a1.7,1.7,0,0,0-2.447,1.181,22.136,22.136,0,0,1-4.193,8.447C175.76,15.228,176.2,21.536,180,27.234c3,4.5-2.1,8.486-2.1,13.563a15.6,15.6,0,0,0,6.346,12.69v2.836a1.7,1.7,0,0,0,3.4,0V53.6c1.469-1.029,3.626-3.636,3.626-10.084,0-3.926.849-5.062,1.748-6.264a7.971,7.971,0,0,0,1.878-5.521,8.1,8.1,0,0,0-2.58-6.1,5.91,5.91,0,0,1-1.953-4.778c0-2.536.768-3.225,1.832-4.178Z" transform="translate(-156.055)"/><path class="a" d="M366.369,20.852c0-2.536.768-3.225,1.832-4.178a6.8,6.8,0,0,0,2.7-5.795c0-6.4-7.84-10.518-8.174-10.69a1.7,1.7,0,0,0-2.447,1.181,22.137,22.137,0,0,1-4.193,8.447C351.76,15.228,352.2,21.536,356,27.234c3,4.5-2.1,8.486-2.1,13.563a15.6,15.6,0,0,0,6.346,12.69v2.836a1.7,1.7,0,0,0,3.4,0V53.6c1.469-1.029,3.626-3.636,3.626-10.084,0-3.926.849-5.062,1.748-6.264a7.971,7.971,0,0,0,1.878-5.521,8.1,8.1,0,0,0-2.58-6.1A5.91,5.91,0,0,1,366.369,20.852Z" transform="translate(-312.11)"/><path class="a" d="M16.2,16.674a6.8,6.8,0,0,0,2.7-5.795c0-6.4-7.84-10.518-8.174-10.69A1.7,1.7,0,0,0,8.281,1.37,22.136,22.136,0,0,1,4.089,9.817C-.24,15.228.2,21.536,4,27.234c3,4.5-2.1,8.486-2.1,13.563a15.6,15.6,0,0,0,6.346,12.69v2.836a1.7,1.7,0,0,0,3.4,0V53.6c1.469-1.029,3.626-3.636,3.626-10.084,0-3.926.849-5.062,1.748-6.264A7.971,7.971,0,0,0,18.9,31.731a8.1,8.1,0,0,0-2.58-6.1,5.91,5.91,0,0,1-1.953-4.778c0-2.536.768-3.225,1.832-4.178Z" transform="translate(0)"/></g><circle class="b" cx="26" cy="26" r="26" transform="translate(116 3927)"/><text class="c" transform="translate(142 3958)"><tspan x="-9.525" y="0">CL</tspan></text></g></svg>