<svg xmlns="http://www.w3.org/2000/svg" width="81.001" height="63" viewBox="0 0 81.001 63"><defs><style>.a{fill:#e2e2e2;}.b{fill:#c78567;}.c{fill:#fff;font-size:15px;font-family:Raleway-Bold, Raleway;font-weight:700;}</style></defs><g transform="translate(-86.999 -3916)"><g transform="translate(86.999 3915.999)"><path class="a" d="M283.193,9.763c-2.94-2.94-12.78-12.286-15.951-9.115s6.175,13.012,9.115,15.951,12.78,12.286,15.951,9.115S286.133,12.7,283.193,9.763Z" transform="translate(-237.956 0)"/><path class="a" d="M115.76,46.23a24.8,24.8,0,0,0-6.023,25.513,1.614,1.614,0,0,0,.389.63l4.558,4.558a1.615,1.615,0,0,0,.63.389A24.8,24.8,0,0,0,140.827,71.3l6.722-6.722c-3.737-.934-8.575-4.374-14.634-10.433s-9.5-10.9-10.433-14.634Z" transform="translate(-96.792 -35.264)"/><path class="a" d="M10.136,354,7.388,356.8H4.834a4.811,4.811,0,0,0-.269,9.615,4.811,4.811,0,0,0,9.616-.269v-2.555l2.793-2.748a4.835,4.835,0,0,1-1.359-.919l-4.558-4.558A4.84,4.84,0,0,1,10.136,354Z" transform="translate(0 -315.975)"/></g><circle class="b" cx="26" cy="26" r="26" transform="translate(116 3927)"/><text class="c" transform="translate(142 3958)"><tspan x="-9.105" y="0">SE</tspan></text></g></svg>