<svg xmlns="http://www.w3.org/2000/svg" width="81" height="62.353" viewBox="0 0 81 62.353"><defs><style>.a{fill:#e2e2e2;}.b{fill:#c78567;}.c{fill:#fff;font-size:15px;font-family:Raleway-Bold, Raleway;font-weight:700;}</style></defs><g transform="translate(-87 -3916.647)"><g transform="translate(87 3915.647)"><path class="a" d="M272.2,2.137a1.716,1.716,0,0,0-3.231,0c-.284.794-6.966,19.616-6.966,34.9,0,7.323.715,12.907,2.124,16.6,1.8,4.723,4.507,5.714,6.458,5.714s4.654-.991,6.458-5.714c1.409-3.69,2.124-9.274,2.124-16.6,0-15.288-6.681-34.11-6.966-34.9Z" transform="translate(-232.023)"/><path class="a" d="M10.917,158.566C5.985,150.025,2.678,138.992.843,131.654c-.226,1.71-.433,3.584-.585,5.562-.851,11.072.4,19.6,3.723,25.355,3.8,6.574,8.4,10.6,13.693,11.966a16.757,16.757,0,0,0,7.156.251,16.941,16.941,0,0,1-2.967-1.962C18.471,170.069,14.788,165.272,10.917,158.566Z" transform="translate(0 -115.705)"/><path class="a" d="M32.8,75.291q.932,1.614,1.841,3.064a38.724,38.724,0,0,1-.628-7.168c0-5,1.568-10.61,4.671-16.755A147.415,147.415,0,0,0,24.174,39.965a1.716,1.716,0,0,0-2.8,1.616C21.526,42.411,25.151,62.051,32.8,75.291Z" transform="translate(-18.906 -34.147)"/><path class="a" d="M125.659,76.41q.987-1.72,2.125-3.492-2.379-1.343-5.071-2.635c-1.789-.857-3.516-1.616-5.11-2.275C119.971,70.3,122.806,73.181,125.659,76.41Z" transform="translate(-104.148 -59.342)"/><path class="a" d="M403.932,72.8c-1.121-1.637-2.237-3.157-3.288-4.525,2.08,7.273,4.732,18.481,4.732,28.344,0,7.743-.79,13.739-2.35,17.822a16.994,16.994,0,0,1-1.587,3.182,16.758,16.758,0,0,0,6.07-3.795c3.9-3.828,5.876-9.618,5.876-17.209C413.385,89.978,410.2,81.964,403.932,72.8Z" transform="translate(-354.804 -59.579)"/><path class="a" d="M170.009,96.621c0-9.863,2.652-21.071,4.732-28.344-1.051,1.367-2.167,2.888-3.288,4.525C165.181,81.965,162,89.979,162,96.621c0,7.591,1.977,13.381,5.876,17.209a16.759,16.759,0,0,0,6.07,3.795,16.992,16.992,0,0,1-1.587-3.182c-1.559-4.082-2.35-10.078-2.35-17.822Z" transform="translate(-143.465 -59.579)"/></g><circle class="b" cx="26" cy="26" r="26" transform="translate(116 3927)"/><text class="c" transform="translate(142 3958)"><tspan x="-11.925" y="0">MG</tspan></text></g></svg>