<svg xmlns="http://www.w3.org/2000/svg" width="70.03" height="67.805" viewBox="0 0 70.03 67.805"><defs><style>.a{fill:#e2e2e2;}.b{fill:#c78567;}.c{fill:#fff;font-size:15px;font-family:Raleway-Bold, Raleway;font-weight:700;}</style></defs><g transform="translate(-97.97 -3911.195)"><g transform="translate(-11.598 3911.194)"><g transform="translate(109.567 0.001)"><g transform="translate(0 0)"><path class="a" d="M150.66,18.81q-.246.144-.49.3a.739.739,0,0,0-.157,1.12l7.56,8.369a.734.734,0,0,0,1.091,0l7.558-8.367a.739.739,0,0,0-.157-1.12q-.245-.155-.493-.3c2.645-2.754,4.986-8.155,6.061-11.389a2.007,2.007,0,0,0-2.549-2.53,50.144,50.144,0,0,0-6.535,2.838,50.151,50.151,0,0,0-2.637-6.617,2.007,2.007,0,0,0-3.592,0,50.152,50.152,0,0,0-2.637,6.617,50.1,50.1,0,0,0-6.535-2.838,2.007,2.007,0,0,0-2.549,2.53C145.66,10.613,148,16.038,150.66,18.81Z" transform="translate(-140.226 -0.001)"/><path class="a" d="M117.57,265.97l-6.859-7.592-.02.069a29.243,29.243,0,0,0-.334,14.778l1.262.318,5.95-6.587A.735.735,0,0,0,117.57,265.97Z" transform="translate(-109.567 -226.807)"/><path class="a" d="M133.945,190.44a.735.735,0,0,0,1.091,0l5.479-6.066a.735.735,0,0,0,0-.986l-7.957-8.808a.735.735,0,0,0-1.06-.035,22.361,22.361,0,0,0-4.8,7.248.733.733,0,0,0,.135.773Z" transform="translate(-124.556 -153.035)"/><path class="a" d="M140.525,347.293l-5.478-6.065a.735.735,0,0,0-1.091,0l-7.111,7.871a.733.733,0,0,0-.135.775,22.516,22.516,0,0,0,4.8,7.245.735.735,0,0,0,1.06-.035l7.953-8.8A.736.736,0,0,0,140.525,347.293Z" transform="translate(-124.566 -299.322)"/><path class="a" d="M277.027,341.232a.736.736,0,0,0-1.093,0l-5.476,6.063a.737.737,0,0,0,0,.987l7.951,8.8a.735.735,0,0,0,1.06.035,22.52,22.52,0,0,0,4.8-7.245.733.733,0,0,0-.135-.774Z" transform="translate(-250.633 -299.325)"/><path class="a" d="M342.782,265.219a.737.737,0,0,0-1.263-.319l-5.946,6.582a.735.735,0,0,0,0,.986l5.946,6.582a.736.736,0,0,0,1.262-.318A29.147,29.147,0,0,0,342.782,265.219Z" transform="translate(-307.791 -232.319)"/><path class="a" d="M196.974,413.32a.734.734,0,0,0-1.091,0l-7.557,8.365a.739.739,0,0,0,.158,1.12,14.552,14.552,0,0,0,15.888,0,.739.739,0,0,0,.158-1.12Z" transform="translate(-178.537 -362.604)"/><path class="a" d="M210.812,269.142l-5.476,6.063a.735.735,0,0,0,0,.986l5.478,6.064a.737.737,0,0,0,1.093,0l5.478-6.065a.734.734,0,0,0,0-.985L211.9,269.14A.737.737,0,0,0,210.812,269.142Z" transform="translate(-193.467 -236.042)"/><path class="a" d="M278.407,174.627l-7.951,8.8a.736.736,0,0,0,0,.986l5.478,6.065a.735.735,0,0,0,1.091,0l7.108-7.868a.733.733,0,0,0,.135-.774,22.518,22.518,0,0,0-4.8-7.246A.735.735,0,0,0,278.407,174.627Z" transform="translate(-250.631 -153.076)"/></g></g></g><circle class="b" cx="26" cy="26" r="26" transform="translate(116 3927)"/><text class="c" transform="translate(142 3958)"><tspan x="-12.21" y="0">MN</tspan></text></g></svg>