<svg xmlns="http://www.w3.org/2000/svg" width="78.252" height="66.025" viewBox="0 0 78.252 66.025"><defs><style>.a{fill:#e2e2e2;}.b{fill:#c78567;}.c{fill:#fff;font-size:15px;font-family:Raleway-Bold, Raleway;font-weight:700;}</style></defs><g transform="translate(-89.748 -3912.975)"><g transform="translate(89.748 3912.975)"><g transform="translate(11.588 0)"><path class="a" d="M319.448,33.128l.02-.026a3.053,3.053,0,0,1,2.395-1.167h.005a2.872,2.872,0,0,1,2.26,1.094,1.554,1.554,0,0,1-2.282,2.1,1.471,1.471,0,0,0,.055,1.3,2.913,2.913,0,0,0,2.48,1.47,4.59,4.59,0,0,0,2.219-.465c.078.493.151.977.215,1.444l.239,1.727a7.636,7.636,0,0,1-2.462.405q-.178,0-.358-.008h-.019a6.031,6.031,0,0,1-5.062-3.124l-.014-.026A4.469,4.469,0,0,1,319.448,33.128Z" transform="translate(-318.613 -28.628)"/><path class="a" d="M217.761,8.963a8.237,8.237,0,0,0-3.645.855c-.119-.863-.262-1.774-.426-2.725a6.552,6.552,0,0,1,1.085-4.926A5.114,5.114,0,0,1,217.744.124l.016-.006A4.617,4.617,0,0,1,218.795,0a1.3,1.3,0,0,1,1.047.561c1.126,1.546,1.869,4.553,2.272,9.193q.021.24.039.476a8.323,8.323,0,0,0-4.392-1.267Z" transform="translate(-202.836 0)"/></g><g transform="translate(0 12.069)"><path class="a" d="M2.029,177.139a33.1,33.1,0,0,0,2.756-13.8,33.1,33.1,0,0,0-2.756-13.8A17.868,17.868,0,0,0,0,146.19a5.739,5.739,0,0,1,.889-.07c2.72,0,5.191,1.908,6.96,5.374a26.16,26.16,0,0,1,2.479,11.634,26.162,26.162,0,0,1-2.479,11.634c-1.768,3.465-4.24,5.374-6.96,5.374a5.763,5.763,0,0,1-.6-.032,18.348,18.348,0,0,0,1.736-2.964Z" transform="translate(42.697 -143.057)"/><path class="a" d="M414.752,151.494c1.768-3.465,4.24-5.374,6.96-5.374a5.741,5.741,0,0,1,.889.07,17.869,17.869,0,0,0-2.029,3.354,35.917,35.917,0,0,0,0,27.6,18.331,18.331,0,0,0,1.736,2.963,5.758,5.758,0,0,1-.6.032c-2.72,0-5.192-1.908-6.96-5.374a28.534,28.534,0,0,1,0-23.267Z" transform="translate(-412.273 -143.057)"/><path class="a" d="M101.389,157.5c2.351,0,4.106-1.592,5.331-3.359a5.748,5.748,0,0,0,3.092.941c2.741,0,5.22-2.053,6.981-5.781a32.861,32.861,0,0,0,0-24.942c-1.76-3.728-4.239-5.781-6.981-5.781a5.8,5.8,0,0,0-3.28,1.063,5.819,5.819,0,0,0-10.286,0,5.8,5.8,0,0,0-3.28-1.063c-2.741,0-5.22,2.053-6.981,5.781a32.861,32.861,0,0,0,0,24.942c1.76,3.728,4.24,5.781,6.981,5.781a5.748,5.748,0,0,0,3.092-.941C97.283,155.9,99.038,157.5,101.389,157.5Z" transform="translate(-74.877 -116.541)"/></g></g><circle class="b" cx="26" cy="26" r="26" transform="translate(116 3927)"/><text class="c" transform="translate(142 3958)"><tspan x="-5.017" y="0">K</tspan></text></g></svg>