<svg xmlns="http://www.w3.org/2000/svg" width="82.116" height="56.395" viewBox="0 0 82.116 56.395"><defs><style>.a{fill:#e2e2e2;}.b{fill:#c78567;}.c{fill:#fff;font-size:15px;font-family:Raleway-Bold, Raleway;font-weight:700;}</style></defs><g transform="translate(-85.884 -3922.605)"><g transform="translate(85.884 3915.554)"><path class="a" d="M50.817,24.572a8.127,8.127,0,0,0,1.764-7.53c-2-7.095-11.589-6.824-14.086.141a9.057,9.057,0,0,1,1.6,8.537c4.773,4.884,3.283,12.749-6,15.893l-6.095,9.815V39.649c11.362-.8,15.028-8.729,8.2-13.091,2.262-3.1,1.438-7.193-2.686-9.627,1.322-5.134-2.463-9.88-7.07-9.88-4.644,0-8.385,4.781-7.072,9.88-4.105,2.423-4.961,6.508-2.686,9.627-6.787,4.336-3.234,12.284,8.2,13.091v11.78l-6.095-9.815c-9.3-3.149-10.77-11.016-6-15.893a9.064,9.064,0,0,1,1.6-8.538A7.7,7.7,0,0,0,3.9,12.55C-.017,14.4-1.59,20.436,2.053,24.572c-2.611,4.1-1.395,8.09,1.973,9.8C.169,40.93,5.984,46.3,15.886,42.854,25.913,59,25.183,58.034,25.794,58.31A1.568,1.568,0,0,0,27.7,57.8c.046-.064,9.282-14.944,9.283-14.945,9.922,3.457,15.707-1.94,11.861-8.482,3.464-1.759,4.516-5.8,1.973-9.8Z" transform="translate(0 0)"/></g><circle class="b" cx="26" cy="26" r="26" transform="translate(116 3927)"/><text class="c" transform="translate(142 3958)"><tspan x="-8.813" y="0">FE</tspan></text></g></svg>