<svg xmlns="http://www.w3.org/2000/svg" width="82.898" height="61.27" viewBox="0 0 82.898 61.27"><defs><style>.a{fill:#e2e2e2;}.b{fill:#c78567;}.c{fill:#fff;font-size:15px;font-family:Raleway-Bold, Raleway;font-weight:700;}</style></defs><g transform="translate(-85.102 -3917.73)"><g transform="translate(85.021 3917.73)"><g transform="translate(0.08 27.699)"><path class="a" d="M18.215,321.662a10.671,10.671,0,0,0-2.377-1.8c.027.287.045.578.054.875a15.088,15.088,0,0,1-.264,3.27,3.636,3.636,0,0,1-3.152,2.864,13.326,13.326,0,0,1-1.375.066,15.35,15.35,0,0,1-1.9-.116,9.867,9.867,0,0,1-6.234-2.957,7.928,7.928,0,0,1-.787-1.033,10.7,10.7,0,0,0,1.006,13.9,10.6,10.6,0,0,0,15.03,0,10.7,10.7,0,0,0,0-15.071Z" transform="translate(-0.08 -314.288)"/><path class="a" d="M42.746,275.808a12.217,12.217,0,0,1-1.513-.092,6.827,6.827,0,0,1-4.307-1.953,6.877,6.877,0,0,1-1.521-4.49,12.149,12.149,0,0,1,.2-2.538.519.519,0,0,1,.45-.409,10.082,10.082,0,0,1,1.023-.046,12.171,12.171,0,0,1,1.513.092,6.826,6.826,0,0,1,4.308,1.953,6.876,6.876,0,0,1,1.521,4.49,12.133,12.133,0,0,1-.2,2.537.52.52,0,0,1-.45.409A10.122,10.122,0,0,1,42.746,275.808Z" transform="translate(-31.726 -266.28)"/></g><g transform="translate(11.564 0)"><path class="a" d="M412.963,95.881a6.573,6.573,0,0,0-3.37-4.839,8.451,8.451,0,0,0-4.131-1.105l-3.746-.043c-.085.954-.145,2-.164,3.119l3.874.044a5.325,5.325,0,0,1,2.6.686,3.464,3.464,0,0,1,1.846,2.593,9.041,9.041,0,0,1-1.276,5.144,31.466,31.466,0,0,1-3.22,4.922,20.508,20.508,0,0,1,1.4,3.24,37.868,37.868,0,0,0,4.6-6.749A11.962,11.962,0,0,0,412.963,95.881Z" transform="translate(-371.273 -80.543)"/><path class="a" d="M112.04,3.121h2.113a44.308,44.308,0,0,1,.813,15.659,13.321,13.321,0,0,1-2.428,6.3h27.854a13.644,13.644,0,0,1-2.431-6.294,42.36,42.36,0,0,1,1.11-16.722A1.56,1.56,0,0,0,137.593,0H112.04a1.56,1.56,0,1,0,0,3.121Z" transform="translate(-110.48 0)"/><path class="a" d="M134,271.048a8.4,8.4,0,0,1,.775,1.25,13.667,13.667,0,0,1,5.64,3.426,13.826,13.826,0,0,1,.41,19.046,17.225,17.225,0,0,0,6.465,1.352l.249,0a17.285,17.285,0,0,0,12.218-5.021,17.693,17.693,0,0,0,3.585-20.053H134Z" transform="translate(-131.557 -242.853)"/></g></g><circle class="b" cx="26" cy="26" r="26" transform="translate(116 3927)"/><text class="c" transform="translate(142 3958)"><tspan x="-4.305" y="0">F</tspan></text></g></svg>