<svg xmlns="http://www.w3.org/2000/svg" width="80.833" height="56.257" viewBox="0 0 80.833 56.257"><defs><style>.a{fill:#e2e2e2;}.b{fill:#c78567;}.c{fill:#fff;font-size:15px;font-family:Raleway-Bold, Raleway;font-weight:700;}</style></defs><g transform="translate(-87.167 -3922.743)"><path class="a" d="M34.246,28.063a10.8,10.8,0,0,0-.107-5.711,5.837,5.837,0,0,1,3.282.294l.181.071a6.522,6.522,0,0,1,3.8,4.191,7.316,7.316,0,0,1,.285,1.348c0,.045,0,.09.006.135a7.3,7.3,0,0,1-1.17,4.775L28.239,51.524ZM19.391,20.647a6.645,6.645,0,0,1,5.237-2.654h.212a6.645,6.645,0,0,1,5.237,2.654,7.835,7.835,0,0,1,1.361,6.7l-6.7,26.18-6.7-26.18A7.835,7.835,0,0,1,19.391,20.647ZM7.776,28.391c0-.037,0-.074.005-.111a7.326,7.326,0,0,1,.286-1.371,6.522,6.522,0,0,1,3.8-4.192l.182-.071a5.835,5.835,0,0,1,3.282-.294,10.8,10.8,0,0,0-.107,5.711L21.23,51.524,8.946,33.166a7.3,7.3,0,0,1-1.17-4.775ZM.008,36.33a6.327,6.327,0,0,1,2.057-5.071l.17-.15A5.649,5.649,0,0,1,4.862,29.8a10.13,10.13,0,0,0,1.675,4.981L18.954,53.335,4.29,42.591l0,0L2.673,41.406A6.627,6.627,0,0,1,.008,36.33ZM2.93,50.064A4.3,4.3,0,0,1,3.1,46.31l.066-.12a3.953,3.953,0,0,1,.374-.555L17.435,55.815,5.629,52.506a4.166,4.166,0,0,1-2.7-2.442ZM32.291,62.743a.724.724,0,0,1-.506,1.241h-14.1a.724.724,0,0,1-.506-1.241l3.174-3.1,3.992,1.119h0a1.428,1.428,0,0,0,.782,0l3.992-1.119ZM46.538,50.064a4.166,4.166,0,0,1-2.7,2.442l-11.806,3.31L45.928,45.635a3.94,3.94,0,0,1,.374.555l.067.122a4.3,4.3,0,0,1,.169,3.752Zm.257-8.658-1.613,1.182,0,0L30.514,53.335,42.932,34.778A10.128,10.128,0,0,0,44.607,29.8a5.651,5.651,0,0,1,2.626,1.311l.17.15h0A6.328,6.328,0,0,1,49.46,36.33,6.627,6.627,0,0,1,46.8,41.406Z" transform="translate(87.167 3904.75)"/><circle class="b" cx="26" cy="26" r="26" transform="translate(116 3927)"/><text class="c" transform="translate(142 3958)"><tspan x="-10.425" y="0">ZN</tspan></text></g></svg>