<svg xmlns="http://www.w3.org/2000/svg" width="79" height="52" viewBox="0 0 79 52"><defs><style>.a{fill:#e2e2e2;}.b{fill:#628989;}.c{fill:#fff;font-size:15px;font-family:Raleway-Bold, Raleway;font-weight:700;}</style></defs><g transform="translate(-89 -3927)"><g transform="translate(89 3917.595)"><g transform="translate(6.398 15.098)"><path class="a" d="M107.909,48.124c-.021-.025-.043-.049-.067-.073a1.365,1.365,0,0,1-.346-1.485c3.661-7.945,1.627-17.574-5.183-24.383S86.007,13.337,78.06,17a1.363,1.363,0,0,1-1.487-.346c-.024-.024-.048-.046-.073-.067a5.875,5.875,0,0,0-7.968.141,5.734,5.734,0,0,0-.143,7.969c.022.025.045.049.069.073a1.365,1.365,0,0,1,.346,1.485,19.983,19.983,0,0,0-1.737,9.128h35.055a4.309,4.309,0,0,1,4.3,4.3,24.274,24.274,0,0,1-6.566,16.6,5.735,5.735,0,0,0,8.049-8.157Z" transform="translate(-66.849 -15.098)"/></g><g transform="translate(13.462 40.992)"><path class="a" d="M140.667,294.284a12.77,12.77,0,0,0,6.72,2.839V285.661Z" transform="translate(-140.667 -285.661)"/></g><g transform="translate(23.052 40.973)"><path class="a" d="M240.873,285.468v11.481a12.771,12.771,0,0,0,6.73-2.847Z" transform="translate(-240.873 -285.468)"/></g><g transform="translate(8.704 38.252)"><path class="a" d="M90.952,257.027v1.435a12.785,12.785,0,0,0,2.735,7.853l7.239-9.288Z" transform="translate(-90.952 -257.027)"/></g><g transform="translate(0 38.252)"><path class="a" d="M41.671,257.027H37.4v1.435a15.783,15.783,0,1,1-31.565,0v-1.435h-4.4A1.434,1.434,0,0,0,0,258.462a21.553,21.553,0,0,0,43.106,0A1.434,1.434,0,0,0,41.671,257.027Z" transform="translate(0 -257.027)"/></g><g transform="translate(24.541 38.252)"><path class="a" d="M256.427,257.027l7.247,9.3a12.786,12.786,0,0,0,2.743-7.863v-1.435Z" transform="translate(-256.427 -257.027)"/></g></g><circle class="b" cx="26" cy="26" r="26" transform="translate(116 3927)"/><text class="c" transform="translate(142 3958)"><tspan x="-5.145" y="0">C</tspan></text></g></svg>