<svg xmlns="http://www.w3.org/2000/svg" width="79.218" height="73.14" viewBox="0 0 79.218 73.14"><g transform="translate(-88.782 -3906.052)"><g transform="translate(78.156 3932.823) rotate(-30)"><path d="M7.625,334.252a5.479,5.479,0,1,0-3.319,10.393A5.479,5.479,0,1,0,14.7,341.326l4.337-4.337-7.074-7.074Z" transform="translate(0 -295.408)" fill="#e2e2e2"/><path d="M154.108,4.475a15.319,15.319,0,0,0-21.64,0A59.134,59.134,0,0,0,121.419,20.2a46.955,46.955,0,0,1-3.223,5.551,4.6,4.6,0,0,0,.464,5.972l8.194,8.194a4.583,4.583,0,0,0,3.25,1.35,4.645,4.645,0,0,0,2.723-.886,46.958,46.958,0,0,1,5.551-3.223,59.139,59.139,0,0,0,15.73-11.049A15.319,15.319,0,0,0,154.108,4.475Z" transform="translate(-105.04 0)" fill="#e2e2e2"/></g><circle cx="26" cy="26" r="26" transform="translate(116 3927)" fill="#628989"/><text transform="translate(142 3958)" fill="#fff" font-size="15" font-family="Raleway-Bold, Raleway" font-weight="700"><tspan x="-8.805" y="0">B1</tspan></text></g></svg>