<svg xmlns="http://www.w3.org/2000/svg" width="82.553" height="80.77" viewBox="0 0 82.553 80.77"><defs><style>.a{fill:#e2e2e2;}.b{fill:#628989;}.c{fill:#fff;font-size:15px;font-family:Raleway-Bold, Raleway;font-weight:700;}</style></defs><g transform="translate(-85.447 -3898.23)"><g transform="translate(78.086 3936.16) rotate(-45)"><g transform="translate(0.001 10.409)"><path class="a" d="M38.934,103.02a12.446,12.446,0,0,0-5.825-3.262h0a12.121,12.121,0,0,0-9.417,1.354l6.352,6.353a1.571,1.571,0,0,1-2.222,2.222l-6.667-6.668c-1.507,1.507-4.28,6.145-5.363,7.971l5.364,5.364a1.571,1.571,0,0,1-2.222,2.222l-4.782-4.782c-1.217,2.122-2.52,4.43-4.768,8.569l2.882,2.882a1.571,1.571,0,0,1-2.222,2.222L7.826,125.25C5.067,130.392,2.115,136.492.174,140.3a1.573,1.573,0,0,0,1.4,2.285c.974,0,20.144-11.008,20.993-11.486l-3.533-3.533a1.571,1.571,0,0,1,2.222-2.222l4.147,4.147c4.068-2.327,6.63-3.89,8.352-4.982l-5.832-5.832a1.571,1.571,0,0,1,2.222-2.222l6.29,6.29c3.63-2.5,5.686-5.185,6.073-9.767A12.635,12.635,0,0,0,38.934,103.02Z" transform="translate(-0.001 -99.354)"/></g><g transform="translate(33.109)"><path class="a" d="M332.041,10.468a4.715,4.715,0,0,0-6.657-6.536,4.715,4.715,0,0,0-9.364.783V7.549a15.686,15.686,0,0,1,12.335,12.345l3.485,0a4.714,4.714,0,0,0,.2-9.423Z" transform="translate(-316.019)"/></g></g><circle class="b" cx="26" cy="26" r="26" transform="translate(116 3927)"/><text class="c" transform="translate(142 3958)"><tspan x="-9.653" y="0">B6</tspan></text></g></svg>