<svg xmlns="http://www.w3.org/2000/svg" width="79" height="52" viewBox="0 0 79 52"><defs><style>.a{fill:#e2e2e2;}.b{fill:#628989;}.c{fill:#fff;font-size:15px;font-family:Raleway-Bold, Raleway;font-weight:700;}</style></defs><g transform="translate(-89 -3927)"><g transform="translate(89 3928.228)"><g transform="translate(10.003 0)"><path class="a" d="M319.334,32.965l.018-.023a2.635,2.635,0,0,1,2.067-1.007h0a2.479,2.479,0,0,1,1.951.944,1.341,1.341,0,0,1-1.97,1.81,1.27,1.27,0,0,0,.047,1.119,2.515,2.515,0,0,0,2.141,1.269,3.962,3.962,0,0,0,1.916-.4c.068.426.13.843.186,1.247l.206,1.491a6.591,6.591,0,0,1-2.126.35q-.154,0-.309-.007h-.016a5.206,5.206,0,0,1-4.369-2.7l-.012-.023A3.857,3.857,0,0,1,319.334,32.965Z" transform="translate(-318.613 -29.08)"/><path class="a" d="M217.191,7.737a7.11,7.11,0,0,0-3.147.738c-.1-.745-.226-1.531-.368-2.352a5.656,5.656,0,0,1,.937-4.252A4.415,4.415,0,0,1,217.176.107L217.19.1a3.985,3.985,0,0,1,.893-.1,1.124,1.124,0,0,1,.9.484c.972,1.334,1.613,3.93,1.961,7.935q.018.207.034.411a7.184,7.184,0,0,0-3.791-1.094Z" transform="translate(-204.307 0)"/></g><g transform="translate(0 10.419)"><path class="a" d="M1.751,172.9a28.569,28.569,0,0,0,2.379-11.91,28.569,28.569,0,0,0-2.379-11.91A15.424,15.424,0,0,0,0,146.181a4.956,4.956,0,0,1,.768-.061c2.348,0,4.481,1.647,6.008,4.639A22.582,22.582,0,0,1,8.916,160.8a22.583,22.583,0,0,1-2.14,10.043c-1.526,2.991-3.66,4.639-6.008,4.639a4.976,4.976,0,0,1-.515-.028,15.838,15.838,0,0,0,1.5-2.558Z" transform="translate(36.857 -143.476)"/><path class="a" d="M414.413,150.759c1.526-2.991,3.66-4.639,6.008-4.639a4.955,4.955,0,0,1,.768.061,15.425,15.425,0,0,0-1.752,2.9,31,31,0,0,0,0,23.821,15.824,15.824,0,0,0,1.5,2.558,4.971,4.971,0,0,1-.515.028c-2.348,0-4.481-1.647-6.008-4.639a24.632,24.632,0,0,1,0-20.085Z" transform="translate(-412.273 -143.476)"/><path class="a" d="M98.946,151.895a5.79,5.79,0,0,0,4.6-2.9,4.961,4.961,0,0,0,2.669.812c2.366,0,4.506-1.772,6.026-4.99a28.366,28.366,0,0,0,0-21.53c-1.52-3.218-3.66-4.99-6.026-4.99a5.011,5.011,0,0,0-2.831.918,5.023,5.023,0,0,0-8.879,0,5.011,5.011,0,0,0-2.831-.918c-2.366,0-4.506,1.772-6.026,4.99a28.366,28.366,0,0,0,0,21.53c1.52,3.218,3.66,4.99,6.026,4.99A4.962,4.962,0,0,0,94.344,149,5.79,5.79,0,0,0,98.946,151.895Z" transform="translate(-76.06 -116.541)"/></g></g><circle class="b" cx="26" cy="26" r="26" transform="translate(116 3927)"/><text class="c" transform="translate(142 3958)"><tspan x="-5.017" y="0">K</tspan></text></g></svg>