<svg xmlns="http://www.w3.org/2000/svg" width="79" height="52" viewBox="0 0 79 52"><defs><style>.a{fill:#e2e2e2;}.b{fill:#628989;}.c{fill:#fff;font-size:15px;font-family:Raleway-Bold, Raleway;font-weight:700;}</style></defs><g transform="translate(-89 -3927)"><g transform="translate(89 3927.894)"><path class="a" d="M73.58,80.358a17.975,17.975,0,0,1,6.778-6.778l-7.737-2.871a1.487,1.487,0,0,0-1.912,1.912Z" transform="translate(-63.568 -63.567)"/><path class="a" d="M7.708,212.8a17.8,17.8,0,0,1,.654-4.79L.867,211.452a1.487,1.487,0,0,0,0,2.7l7.495,3.438a17.8,17.8,0,0,1-.654-4.79Z" transform="translate(0 -187.251)"/><path class="a" d="M212.8,7.708a17.8,17.8,0,0,1,4.79.654L214.155.867a1.487,1.487,0,0,0-2.7,0l-3.438,7.495a17.8,17.8,0,0,1,4.79-.654Z" transform="translate(-187.25)"/><path class="a" d="M350.565,80.359l2.871-7.737a1.487,1.487,0,0,0-1.912-1.912l-7.737,2.871A17.977,17.977,0,0,1,350.565,80.359Z" transform="translate(-309.471 -63.568)"/><path class="a" d="M212.8,428.884a17.8,17.8,0,0,1-4.79-.654l3.438,7.495a1.487,1.487,0,0,0,2.7,0l3.438-7.495A17.8,17.8,0,0,1,212.8,428.884Z" transform="translate(-187.251 -385.486)"/><path class="a" d="M73.58,343.787l-2.871,7.737a1.487,1.487,0,0,0,1.912,1.912l7.737-2.871A17.977,17.977,0,0,1,73.58,343.787Z" transform="translate(-63.567 -309.471)"/><path class="a" d="M435.724,211.451l-7.495-3.438a17.875,17.875,0,0,1,0,9.58l7.495-3.438a1.487,1.487,0,0,0,0-2.7Z" transform="translate(-385.486 -187.25)"/><path class="a" d="M350.566,343.787a17.975,17.975,0,0,1-6.778,6.778l7.737,2.871a1.487,1.487,0,0,0,1.912-1.912Z" transform="translate(-309.472 -309.471)"/><path class="a" d="M121.891,136.761a14.871,14.871,0,1,1,14.871-14.871A14.887,14.887,0,0,1,121.891,136.761Z" transform="translate(-96.338 -96.338)"/></g><circle class="b" cx="26" cy="26" r="26" transform="translate(116 3927)"/><text class="c" transform="translate(142 3958)"><tspan x="-5.37" y="0">D</tspan></text></g></svg>