<svg xmlns="http://www.w3.org/2000/svg" width="90.695" height="79.958" viewBox="0 0 90.695 79.958"><defs><style>.a{fill:#e2e2e2;}.b{fill:#628989;}.c{fill:#fff;font-size:15px;font-family:Raleway-Bold, Raleway;font-weight:700;}</style></defs><g transform="translate(-77.305 -3902.502)"><g transform="translate(73.54 3942.481) rotate(-45)"><path class="a" d="M430.311,0a10.486,10.486,0,0,0-8.277,4.028,15.628,15.628,0,0,1,2.692,1.935,7.166,7.166,0,0,1,5.587-2.65,1.656,1.656,0,0,0,0-3.313Z" transform="translate(-375.43 0)"/><circle class="a" cx="7.215" cy="7.215" r="7.215" transform="translate(13.955 28.154)"/><path class="a" d="M30.206,51.816a18.859,18.859,0,0,1-11.266,5.4A21.17,21.17,0,1,0,42.213,80.5a18.871,18.871,0,0,1,5.4-11.276A12.308,12.308,0,0,0,30.206,51.816ZM21.17,88.794A10.528,10.528,0,1,1,31.7,78.266,10.54,10.54,0,0,1,21.17,88.794Z" transform="translate(0 -42.897)"/></g><circle class="b" cx="26" cy="26" r="26" transform="translate(116 3927)"/><text class="c" transform="translate(142 3958)"><tspan x="-9.255" y="0">B5</tspan></text></g></svg>