<svg xmlns="http://www.w3.org/2000/svg" width="78.557" height="73.513" viewBox="0 0 78.557 73.513"><defs><style>.a{fill:#e2e2e2;}.b{fill:#628989;}.c{fill:#fff;font-size:15px;font-family:Raleway-Bold, Raleway;font-weight:700;}</style></defs><g transform="translate(-89.443 -3905.487)"><g transform="translate(76.48 3940.679) rotate(-45)"><path class="a" d="M363.252,9.15a12.874,12.874,0,0,0-.416-4.25c-.014-.046-.026-.092-.036-.139-.1-.362-.2-.693-.3-.984-1.664.833-4.479,2.589-5.625,5.356a7.3,7.3,0,0,0-.286.837c.094.222.181.449.265.68A17.555,17.555,0,0,1,363.252,9.15Zm0,0" transform="translate(-321.931 -3.41)"/><path class="a" d="M439.032,86.545a17.364,17.364,0,0,1-1.5,6.394q.343.124.674.263a7.319,7.319,0,0,0,.838-.286c2.781-1.152,4.529-3.958,5.357-5.62A13.912,13.912,0,0,0,439.032,86.545Zm0,0" transform="translate(-395.004 -78.099)"/><path class="a" d="M452.4,5.5a15.641,15.641,0,0,1,3.816.319A13.207,13.207,0,0,0,457.91,0a13.306,13.306,0,0,0-5.824,1.685A15.646,15.646,0,0,1,452.4,5.5Zm0,0" transform="translate(-408.141)"/><path class="a" d="M326.613,96.545a7.5,7.5,0,0,0,.813-.968l.016-.022a12.742,12.742,0,0,0,1.971-6.254,12.8,12.8,0,0,0-6.244,1.961l-.035.025a7.43,7.43,0,0,0-.967.812c-2.117,2.117-2.662,5.388-2.8,7.245C321.229,99.212,324.491,98.667,326.613,96.545Zm0,0" transform="translate(-288.326 -80.62)"/><path class="a" d="M272.886,51.649c.228.418.472.811.717,1.174a13.318,13.318,0,0,1,3.409-7.158q.294-.294.607-.557a10.348,10.348,0,0,0-.545-1.473,1.543,1.543,0,0,1-.073-.156,15,15,0,0,0-2.21-3.322c-1.218,1.406-3.147,4.106-3.147,7.1a9.162,9.162,0,0,0,1.135,4.194A1.411,1.411,0,0,1,272.886,51.649Zm0,0" transform="translate(-245.239 -36.253)"/><path class="a" d="M348.676,179.462a13.364,13.364,0,0,1-7.156,3.4,10.237,10.237,0,0,0,5.564,1.965c2.992,0,5.69-1.926,7.1-3.145a13.65,13.65,0,0,0-4.948-2.83Q348.969,179.167,348.676,179.462Zm0,0" transform="translate(-308.322 -161.47)"/><path class="a" d="M28.515,191.5a18.316,18.316,0,0,1-2.483-2.918L1.119,213.5a3.819,3.819,0,1,0,5.4,5.4l24.914-24.914A18.322,18.322,0,0,1,28.515,191.5Zm0,0" transform="translate(0 -170.254)"/></g><circle class="b" cx="26" cy="26" r="26" transform="translate(116 3927)"/><text class="c" transform="translate(142 3958)"><tspan x="-9.517" y="0">B9</tspan></text></g></svg>