<svg xmlns="http://www.w3.org/2000/svg" width="82.292" height="57.822" viewBox="0 0 82.292 57.822"><defs><style>.a{fill:#e2e2e2;}.b{fill:#628989;}.c{fill:#fff;font-size:15px;font-family:Raleway-Bold, Raleway;font-weight:700;}</style></defs><g transform="translate(-85.708 -3924.786)"><g transform="matrix(-0.966, -0.259, 0.259, -0.966, 131.201, 3982.607)"><path class="a" d="M1.217,1.59A9.9,9.9,0,0,0,4.937,0,36.316,36.316,0,0,0,17.853,1.119C13.443,6.1,7.318,6.707,1.04,4.517A1.517,1.517,0,0,1,1.217,1.59Z" transform="translate(12.276 46.067)"/><path class="a" d="M7.051,20.258a9.42,9.42,0,0,0,10.207,1.788,76.192,76.192,0,0,1,14.41-3.858c-.376.591-.379.594-.4.639-1.4,2.442-4.485,8.778-2.759,14.866,1.017,3.588,3.5,6.474,7.387,8.579l.656.359a29.877,29.877,0,0,1-15.1,1.252,20.767,20.767,0,0,1-9.063-3.316C1.652,33.484-1.415,23.88.563,15.817v0C2.882,6.375,12.574.464,12.985.216A1.518,1.518,0,0,1,13.779,0a6.771,6.771,0,0,1,4.946,2.272c1.637,1.928,2.1,4.8,1.385,8.531a1.52,1.52,0,0,1-2.1,1.1,14.287,14.287,0,0,0-5.611-.981A10.116,10.116,0,0,0,3.768,16.2a16.363,16.363,0,0,0,3.283,4.054Z" transform="translate(0 0)"/><path class="a" d="M20.744,3.773C19.41,12.466,15.6,19.595,8.9,23.525L6.324,22.113C3.18,20.412,1.188,18.143.4,15.369-1,10.415,1.635,5,2.855,2.872L4.557.2C9.628-.267,14.89.012,19.335,1.915a2.214,2.214,0,0,1,1.19.8A1.516,1.516,0,0,1,20.744,3.773ZM9.451,11.727a1.517,1.517,0,1,0,1.517,1.517A1.516,1.516,0,0,0,9.451,11.727Z" transform="translate(31.023 17.496)"/></g><circle class="b" cx="26" cy="26" r="26" transform="translate(116 3927)"/><text class="c" transform="translate(142 3958)"><tspan x="-13.035" y="0">B12</tspan></text></g></svg>