<svg xmlns="http://www.w3.org/2000/svg" width="84.092" height="69.785" viewBox="0 0 84.092 69.785"><defs><style>.a{fill:#e2e2e2;}.b{fill:#628989;}.c{fill:#fff;font-size:15px;font-family:Raleway-Bold, Raleway;font-weight:700;}</style></defs><g transform="translate(-83.908 -3909.215)"><g transform="translate(82.776 3909.215)"><g transform="translate(5.095 37.299)"><g transform="translate(0 4.701)"><path class="a" d="M44.274,332.505l-.081-.164a15.631,15.631,0,0,1-4.367.649h-.093a15.449,15.449,0,0,1-7.348-1.846,12.006,12.006,0,0,0,11.994,10.765h.073a12.242,12.242,0,0,0,3.353-.486A55.184,55.184,0,0,0,44.274,332.505Z" transform="translate(-32.385 -331.144)"/><path class="a" d="M381.519,339.853h-.086a14.637,14.637,0,0,1-4.712-.779c-.149.406-.294.809-.43,1.2a61.184,61.184,0,0,0-1.742,6.04,9.771,9.771,0,0,0,3.661.709h.059a9.722,9.722,0,0,0,6.849-2.843,9.473,9.473,0,0,0,2.768-5.816A14.6,14.6,0,0,1,381.519,339.853Z" transform="translate(-331.153 -337.449)"/></g><path class="a" d="M179.838,298.707a14.1,14.1,0,0,1-2.6-2.257q-.615.061-1.238.065h-.079a13.091,13.091,0,0,1-6.3-1.6l-2.3,7.7-4.318-8.061a14.1,14.1,0,0,1-1.543-.47,13.1,13.1,0,0,1-4.529.985A14.944,14.944,0,0,1,153,298.451c2.661,5.362,5.715,13.376,5.481,21.59a1.636,1.636,0,0,0,1.635,1.682h5.329l-.042-8.289a1.9,1.9,0,1,1,3.8-.035l.042,8.325h5.114a1.636,1.636,0,0,0,1.625-1.7,55.723,55.723,0,0,1,3.258-19.658Q179.539,299.5,179.838,298.707Z" transform="translate(-137.699 -294.08)"/></g><path class="a" d="M55.376,40.6a10.56,10.56,0,0,1-9.125-5.138,9.35,9.35,0,0,1-2.877.469h-.057a9.149,9.149,0,0,1-5.985-2.183,10.347,10.347,0,0,1-8.566-.667,9.242,9.242,0,0,1-4.877,1.41,9.588,9.588,0,0,1-1.481-.108,11.429,11.429,0,0,1-9.9,5.66h-.071c-6.2,0-11.272-4.778-11.311-10.682A10.75,10.75,0,0,1,8.277,19.294a7.92,7.92,0,0,1,2.384-7.235A8.743,8.743,0,0,1,16.67,9.668a9.152,9.152,0,0,1,1.521.119A12.805,12.805,0,0,1,22.1,3.508,14.037,14.037,0,0,1,31.366,0h.085a14.133,14.133,0,0,1,8.807,3.047A12.994,12.994,0,0,1,44.4,8.805a12.791,12.791,0,0,1,2.319-.224H46.8c6.677,0,12.13,5.138,12.172,11.487a10.954,10.954,0,0,1-.07,1.313,10.476,10.476,0,0,1,4.286,2.77A9.555,9.555,0,0,1,62.741,37.7a10.621,10.621,0,0,1-7.3,2.9h-.064Z" transform="translate(0 0)"/></g><circle class="b" cx="26" cy="26" r="26" transform="translate(116 3927)"/><text class="c" transform="translate(142 3958)"><tspan x="-9.285" y="0">B3</tspan></text></g></svg>