<svg xmlns="http://www.w3.org/2000/svg" width="69.587" height="58.198" viewBox="0 0 69.587 58.198"><defs><style>.a{fill:#e2e2e2;}.b{fill:#628989;}.c{fill:#fff;font-size:15px;font-family:Raleway-Bold, Raleway;font-weight:700;}</style></defs><g transform="translate(-98.413 -3920.802)"><g transform="translate(82.97 3948.321) rotate(-45)"><path class="a" d="M389.139,30.478q.361-.018.724-.018a14.549,14.549,0,0,1,4.6.741,11.932,11.932,0,0,0,2.363-7.161,1.252,1.252,0,0,0-1.252-1.252,11.958,11.958,0,0,0-7.159,2.37,14.553,14.553,0,0,1,.739,4.6Q389.157,30.117,389.139,30.478Zm0,0" transform="translate(-356.008 -20.888)"/><path class="a" d="M12.2,355.525q-.443-.444-.838-.916l-11,11a1.251,1.251,0,1,0,1.77,1.77l11-11q-.477-.4-.923-.847Zm0,0" transform="translate(0 -325.021)"/><path class="a" d="M278.251,11.349a14.6,14.6,0,0,1,.318,2.184L281.7,10.4a12.2,12.2,0,0,0,.1-1.536,11.942,11.942,0,0,0-3.521-8.5,1.252,1.252,0,0,0-1.77,0,12.022,12.022,0,0,0-2.49,3.615,3.752,3.752,0,0,1,.343.3A14.467,14.467,0,0,1,278.251,11.349Zm0,0" transform="translate(-251.152)"/><path class="a" d="M363.047,148.247a11.942,11.942,0,0,0-8.5-3.521,12.136,12.136,0,0,0-1.536.1l-3.123,3.123a14.416,14.416,0,0,1,9.243,4.218,3.84,3.84,0,0,1,.3.343,12.012,12.012,0,0,0,3.6-2.474,1.251,1.251,0,0,0,.017-1.787Zm0,0" transform="translate(-320.692 -132.651)"/><path class="a" d="M210.469,81.69l3.114-3.114a12.006,12.006,0,0,0-3.414-10.046,1.252,1.252,0,0,0-1.77,0,11.955,11.955,0,0,0-2.485,3.619,3.73,3.73,0,0,1,.337.3A14.413,14.413,0,0,1,210.469,81.69Zm0,0" transform="translate(-188.733 -62.476)"/><path class="a" d="M286.376,212.891a12.143,12.143,0,0,0-1.537.1l-3.124,3.123a14.417,14.417,0,0,1,9.243,4.218,3.808,3.808,0,0,1,.3.343,12.023,12.023,0,0,0,3.615-2.49,1.251,1.251,0,0,0,0-1.77A11.941,11.941,0,0,0,286.376,212.891Zm0,0" transform="translate(-258.209 -195.127)"/><path class="a" d="M134.213,145.2a11.942,11.942,0,0,0-3.521-8.5,1.251,1.251,0,0,0-1.77,0,12.038,12.038,0,0,0-.84,16.069l6.033-6.033A12.181,12.181,0,0,0,134.213,145.2Zm0,0" transform="translate(-114.943 -124.957)"/><path class="a" d="M186.25,281.055a12.208,12.208,0,0,0-1.537.1l-6.033,6.033a11.931,11.931,0,0,0,7.57,2.682h0a11.941,11.941,0,0,0,8.5-3.521,1.252,1.252,0,0,0,0-1.77A11.941,11.941,0,0,0,186.25,281.055Zm0,0" transform="translate(-163.771 -257.604)"/></g><circle class="b" cx="26" cy="26" r="26" transform="translate(116 3927)"/><text class="c" transform="translate(142 3958)"><tspan x="-4.507" y="0">E</tspan></text></g></svg>